<?xml version="1.0" encoding="UTF-8"?>
<svg xmlns="http://www.w3.org/2000/svg" xmlns:xlink="http://www.w3.org/1999/xlink" width="353pt" height="43pt" viewBox="0 0 353 43" version="1.1">
<g id="surface34">
<path style="fill-rule:nonzero;fill:rgb(0%,0%,0%);fill-opacity:1;stroke-width:0.03;stroke-linecap:square;stroke-linejoin:miter;stroke:rgb(0%,0%,0%);stroke-opacity:1;stroke-miterlimit:3.239307;" d="M 78.605469 28.050781 L 78.605469 17.277344 L 89.375 17.277344 L 89.375 28.050781 Z M 78.605469 28.050781 " transform="matrix(1,0,0,1,-66,-5)"/>
<path style="fill:none;stroke-width:1;stroke-linecap:square;stroke-linejoin:miter;stroke:rgb(61.802673%,61.802673%,61.802673%);stroke-opacity:1;stroke-miterlimit:3.25;" d="M 78.605469 28.050781 L 78.605469 17.277344 L 89.375 17.277344 L 89.375 28.050781 Z M 78.605469 28.050781 " transform="matrix(1,0,0,1,-66,-5)"/>
<path style="fill-rule:nonzero;fill:rgb(0%,0%,0%);fill-opacity:1;stroke-width:0.03;stroke-linecap:square;stroke-linejoin:miter;stroke:rgb(0%,0%,0%);stroke-opacity:1;stroke-miterlimit:3.25;" d="M 89.375 28.050781 L 89.375 17.277344 L 100.144531 17.277344 L 100.144531 28.050781 Z M 89.375 28.050781 " transform="matrix(1,0,0,1,-66,-5)"/>
<path style="fill:none;stroke-width:1;stroke-linecap:square;stroke-linejoin:miter;stroke:rgb(61.802673%,61.802673%,61.802673%);stroke-opacity:1;stroke-miterlimit:3.25;" d="M 89.375 28.050781 L 89.375 17.277344 L 100.144531 17.277344 L 100.144531 28.050781 Z M 89.375 28.050781 " transform="matrix(1,0,0,1,-66,-5)"/>
<path style="fill-rule:nonzero;fill:rgb(0%,0%,0%);fill-opacity:1;stroke-width:0.03;stroke-linecap:square;stroke-linejoin:miter;stroke:rgb(0%,0%,0%);stroke-opacity:1;stroke-miterlimit:3.25;" d="M 100.144531 28.050781 L 100.144531 17.277344 L 110.914063 17.277344 L 110.914063 28.050781 Z M 100.144531 28.050781 " transform="matrix(1,0,0,1,-66,-5)"/>
<path style="fill:none;stroke-width:1;stroke-linecap:square;stroke-linejoin:miter;stroke:rgb(61.802673%,61.802673%,61.802673%);stroke-opacity:1;stroke-miterlimit:3.25;" d="M 100.144531 28.050781 L 100.144531 17.277344 L 110.914063 17.277344 L 110.914063 28.050781 Z M 100.144531 28.050781 " transform="matrix(1,0,0,1,-66,-5)"/>
<path style="fill-rule:nonzero;fill:rgb(99.998474%,99.998474%,99.998474%);fill-opacity:1;stroke-width:0.03;stroke-linecap:square;stroke-linejoin:miter;stroke:rgb(99.998474%,99.998474%,99.998474%);stroke-opacity:1;stroke-miterlimit:3.25;" d="M 89.375 41.511719 L 89.375 30.742188 L 100.144531 30.742188 L 100.144531 41.511719 Z M 89.375 41.511719 " transform="matrix(1,0,0,1,-66,-5)"/>
<path style="fill:none;stroke-width:1;stroke-linecap:square;stroke-linejoin:miter;stroke:rgb(61.802673%,61.802673%,61.802673%);stroke-opacity:1;stroke-miterlimit:3.25;" d="M 89.375 41.511719 L 89.375 30.742188 L 100.144531 30.742188 L 100.144531 41.511719 Z M 89.375 41.511719 " transform="matrix(1,0,0,1,-66,-5)"/>
<path style="fill-rule:nonzero;fill:rgb(0%,0%,0%);fill-opacity:1;stroke-width:0.03;stroke-linecap:square;stroke-linejoin:miter;stroke:rgb(0%,0%,0%);stroke-opacity:1;stroke-miterlimit:3.239307;" d="M 121.683594 28.050781 L 121.683594 17.277344 L 132.453125 17.277344 L 132.453125 28.050781 Z M 121.683594 28.050781 " transform="matrix(1,0,0,1,-66,-5)"/>
<path style="fill:none;stroke-width:1;stroke-linecap:square;stroke-linejoin:miter;stroke:rgb(61.802673%,61.802673%,61.802673%);stroke-opacity:1;stroke-miterlimit:3.25;" d="M 121.683594 28.050781 L 121.683594 17.277344 L 132.453125 17.277344 L 132.453125 28.050781 Z M 121.683594 28.050781 " transform="matrix(1,0,0,1,-66,-5)"/>
<path style="fill-rule:nonzero;fill:rgb(0%,0%,0%);fill-opacity:1;stroke-width:0.03;stroke-linecap:square;stroke-linejoin:miter;stroke:rgb(0%,0%,0%);stroke-opacity:1;stroke-miterlimit:3.25;" d="M 132.453125 28.050781 L 132.453125 17.277344 L 143.226563 17.277344 L 143.226563 28.050781 Z M 132.453125 28.050781 " transform="matrix(1,0,0,1,-66,-5)"/>
<path style="fill:none;stroke-width:1;stroke-linecap:square;stroke-linejoin:miter;stroke:rgb(61.802673%,61.802673%,61.802673%);stroke-opacity:1;stroke-miterlimit:3.25;" d="M 132.453125 28.050781 L 132.453125 17.277344 L 143.226563 17.277344 L 143.226563 28.050781 Z M 132.453125 28.050781 " transform="matrix(1,0,0,1,-66,-5)"/>
<path style="fill-rule:nonzero;fill:rgb(99.998474%,99.998474%,99.998474%);fill-opacity:1;stroke-width:0.03;stroke-linecap:square;stroke-linejoin:miter;stroke:rgb(99.998474%,99.998474%,99.998474%);stroke-opacity:1;stroke-miterlimit:3.25;" d="M 143.226563 28.050781 L 143.226563 17.277344 L 153.996094 17.277344 L 153.996094 28.050781 Z M 143.226563 28.050781 " transform="matrix(1,0,0,1,-66,-5)"/>
<path style="fill:none;stroke-width:1;stroke-linecap:square;stroke-linejoin:miter;stroke:rgb(61.802673%,61.802673%,61.802673%);stroke-opacity:1;stroke-miterlimit:3.25;" d="M 143.226563 28.050781 L 143.226563 17.277344 L 153.996094 17.277344 L 153.996094 28.050781 Z M 143.226563 28.050781 " transform="matrix(1,0,0,1,-66,-5)"/>
<path style="fill-rule:nonzero;fill:rgb(0%,0%,0%);fill-opacity:1;stroke-width:0.03;stroke-linecap:square;stroke-linejoin:miter;stroke:rgb(0%,0%,0%);stroke-opacity:1;stroke-miterlimit:3.25;" d="M 132.453125 41.511719 L 132.453125 30.742188 L 143.226563 30.742188 L 143.226563 41.511719 Z M 132.453125 41.511719 " transform="matrix(1,0,0,1,-66,-5)"/>
<path style="fill:none;stroke-width:1;stroke-linecap:square;stroke-linejoin:miter;stroke:rgb(61.802673%,61.802673%,61.802673%);stroke-opacity:1;stroke-miterlimit:3.25;" d="M 132.453125 41.511719 L 132.453125 30.742188 L 143.226563 30.742188 L 143.226563 41.511719 Z M 132.453125 41.511719 " transform="matrix(1,0,0,1,-66,-5)"/>
<path style="fill-rule:nonzero;fill:rgb(0%,0%,0%);fill-opacity:1;stroke-width:0.03;stroke-linecap:square;stroke-linejoin:miter;stroke:rgb(0%,0%,0%);stroke-opacity:1;stroke-miterlimit:3.239307;" d="M 164.765625 28.050781 L 164.765625 17.277344 L 175.535156 17.277344 L 175.535156 28.050781 Z M 164.765625 28.050781 " transform="matrix(1,0,0,1,-66,-5)"/>
<path style="fill:none;stroke-width:1;stroke-linecap:square;stroke-linejoin:miter;stroke:rgb(61.802673%,61.802673%,61.802673%);stroke-opacity:1;stroke-miterlimit:3.25;" d="M 164.765625 28.050781 L 164.765625 17.277344 L 175.535156 17.277344 L 175.535156 28.050781 Z M 164.765625 28.050781 " transform="matrix(1,0,0,1,-66,-5)"/>
<path style="fill-rule:nonzero;fill:rgb(99.998474%,99.998474%,99.998474%);fill-opacity:1;stroke-width:0.03;stroke-linecap:square;stroke-linejoin:miter;stroke:rgb(99.998474%,99.998474%,99.998474%);stroke-opacity:1;stroke-miterlimit:3.25;" d="M 175.535156 28.050781 L 175.535156 17.277344 L 186.304688 17.277344 L 186.304688 28.050781 Z M 175.535156 28.050781 " transform="matrix(1,0,0,1,-66,-5)"/>
<path style="fill:none;stroke-width:1;stroke-linecap:square;stroke-linejoin:miter;stroke:rgb(61.802673%,61.802673%,61.802673%);stroke-opacity:1;stroke-miterlimit:3.25;" d="M 175.535156 28.050781 L 175.535156 17.277344 L 186.304688 17.277344 L 186.304688 28.050781 Z M 175.535156 28.050781 " transform="matrix(1,0,0,1,-66,-5)"/>
<path style="fill-rule:nonzero;fill:rgb(0%,0%,0%);fill-opacity:1;stroke-width:0.03;stroke-linecap:square;stroke-linejoin:miter;stroke:rgb(0%,0%,0%);stroke-opacity:1;stroke-miterlimit:3.25;" d="M 186.304688 28.050781 L 186.304688 17.277344 L 197.074219 17.277344 L 197.074219 28.050781 Z M 186.304688 28.050781 " transform="matrix(1,0,0,1,-66,-5)"/>
<path style="fill:none;stroke-width:1;stroke-linecap:square;stroke-linejoin:miter;stroke:rgb(61.802673%,61.802673%,61.802673%);stroke-opacity:1;stroke-miterlimit:3.25;" d="M 186.304688 28.050781 L 186.304688 17.277344 L 197.074219 17.277344 L 197.074219 28.050781 Z M 186.304688 28.050781 " transform="matrix(1,0,0,1,-66,-5)"/>
<path style="fill-rule:nonzero;fill:rgb(99.998474%,99.998474%,99.998474%);fill-opacity:1;stroke-width:0.03;stroke-linecap:square;stroke-linejoin:miter;stroke:rgb(99.998474%,99.998474%,99.998474%);stroke-opacity:1;stroke-miterlimit:3.25;" d="M 175.535156 41.511719 L 175.535156 30.742188 L 186.304688 30.742188 L 186.304688 41.511719 Z M 175.535156 41.511719 " transform="matrix(1,0,0,1,-66,-5)"/>
<path style="fill:none;stroke-width:1;stroke-linecap:square;stroke-linejoin:miter;stroke:rgb(61.802673%,61.802673%,61.802673%);stroke-opacity:1;stroke-miterlimit:3.25;" d="M 175.535156 41.511719 L 175.535156 30.742188 L 186.304688 30.742188 L 186.304688 41.511719 Z M 175.535156 41.511719 " transform="matrix(1,0,0,1,-66,-5)"/>
<path style="fill-rule:nonzero;fill:rgb(0%,0%,0%);fill-opacity:1;stroke-width:0.03;stroke-linecap:square;stroke-linejoin:miter;stroke:rgb(0%,0%,0%);stroke-opacity:1;stroke-miterlimit:3.239307;" d="M 207.84375 28.050781 L 207.84375 17.277344 L 218.613281 17.277344 L 218.613281 28.050781 Z M 207.84375 28.050781 " transform="matrix(1,0,0,1,-66,-5)"/>
<path style="fill:none;stroke-width:1;stroke-linecap:square;stroke-linejoin:miter;stroke:rgb(61.802673%,61.802673%,61.802673%);stroke-opacity:1;stroke-miterlimit:3.25;" d="M 207.84375 28.050781 L 207.84375 17.277344 L 218.613281 17.277344 L 218.613281 28.050781 Z M 207.84375 28.050781 " transform="matrix(1,0,0,1,-66,-5)"/>
<path style="fill-rule:nonzero;fill:rgb(99.998474%,99.998474%,99.998474%);fill-opacity:1;stroke-width:0.03;stroke-linecap:square;stroke-linejoin:miter;stroke:rgb(99.998474%,99.998474%,99.998474%);stroke-opacity:1;stroke-miterlimit:3.25;" d="M 218.613281 28.050781 L 218.613281 17.277344 L 229.386719 17.277344 L 229.386719 28.050781 Z M 218.613281 28.050781 " transform="matrix(1,0,0,1,-66,-5)"/>
<path style="fill:none;stroke-width:1;stroke-linecap:square;stroke-linejoin:miter;stroke:rgb(61.802673%,61.802673%,61.802673%);stroke-opacity:1;stroke-miterlimit:3.25;" d="M 218.613281 28.050781 L 218.613281 17.277344 L 229.386719 17.277344 L 229.386719 28.050781 Z M 218.613281 28.050781 " transform="matrix(1,0,0,1,-66,-5)"/>
<path style="fill-rule:nonzero;fill:rgb(99.998474%,99.998474%,99.998474%);fill-opacity:1;stroke-width:0.03;stroke-linecap:square;stroke-linejoin:miter;stroke:rgb(99.998474%,99.998474%,99.998474%);stroke-opacity:1;stroke-miterlimit:3.25;" d="M 229.386719 28.050781 L 229.386719 17.277344 L 240.15625 17.277344 L 240.15625 28.050781 Z M 229.386719 28.050781 " transform="matrix(1,0,0,1,-66,-5)"/>
<path style="fill:none;stroke-width:1;stroke-linecap:square;stroke-linejoin:miter;stroke:rgb(61.802673%,61.802673%,61.802673%);stroke-opacity:1;stroke-miterlimit:3.25;" d="M 229.386719 28.050781 L 229.386719 17.277344 L 240.15625 17.277344 L 240.15625 28.050781 Z M 229.386719 28.050781 " transform="matrix(1,0,0,1,-66,-5)"/>
<path style="fill-rule:nonzero;fill:rgb(0%,0%,0%);fill-opacity:1;stroke-width:0.03;stroke-linecap:square;stroke-linejoin:miter;stroke:rgb(0%,0%,0%);stroke-opacity:1;stroke-miterlimit:3.25;" d="M 218.613281 41.511719 L 218.613281 30.742188 L 229.386719 30.742188 L 229.386719 41.511719 Z M 218.613281 41.511719 " transform="matrix(1,0,0,1,-66,-5)"/>
<path style="fill:none;stroke-width:1;stroke-linecap:square;stroke-linejoin:miter;stroke:rgb(61.802673%,61.802673%,61.802673%);stroke-opacity:1;stroke-miterlimit:3.25;" d="M 218.613281 41.511719 L 218.613281 30.742188 L 229.386719 30.742188 L 229.386719 41.511719 Z M 218.613281 41.511719 " transform="matrix(1,0,0,1,-66,-5)"/>
<path style="fill-rule:nonzero;fill:rgb(99.998474%,99.998474%,99.998474%);fill-opacity:1;stroke-width:0.03;stroke-linecap:square;stroke-linejoin:miter;stroke:rgb(99.998474%,99.998474%,99.998474%);stroke-opacity:1;stroke-miterlimit:3.239307;" d="M 250.925781 28.050781 L 250.925781 17.277344 L 261.695313 17.277344 L 261.695313 28.050781 Z M 250.925781 28.050781 " transform="matrix(1,0,0,1,-66,-5)"/>
<path style="fill:none;stroke-width:1;stroke-linecap:square;stroke-linejoin:miter;stroke:rgb(61.802673%,61.802673%,61.802673%);stroke-opacity:1;stroke-miterlimit:3.25;" d="M 250.925781 28.050781 L 250.925781 17.277344 L 261.695313 17.277344 L 261.695313 28.050781 Z M 250.925781 28.050781 " transform="matrix(1,0,0,1,-66,-5)"/>
<path style="fill-rule:nonzero;fill:rgb(0%,0%,0%);fill-opacity:1;stroke-width:0.03;stroke-linecap:square;stroke-linejoin:miter;stroke:rgb(0%,0%,0%);stroke-opacity:1;stroke-miterlimit:3.25;" d="M 261.695313 28.050781 L 261.695313 17.277344 L 272.464844 17.277344 L 272.464844 28.050781 Z M 261.695313 28.050781 " transform="matrix(1,0,0,1,-66,-5)"/>
<path style="fill:none;stroke-width:1;stroke-linecap:square;stroke-linejoin:miter;stroke:rgb(61.802673%,61.802673%,61.802673%);stroke-opacity:1;stroke-miterlimit:3.25;" d="M 261.695313 28.050781 L 261.695313 17.277344 L 272.464844 17.277344 L 272.464844 28.050781 Z M 261.695313 28.050781 " transform="matrix(1,0,0,1,-66,-5)"/>
<path style="fill-rule:nonzero;fill:rgb(0%,0%,0%);fill-opacity:1;stroke-width:0.03;stroke-linecap:square;stroke-linejoin:miter;stroke:rgb(0%,0%,0%);stroke-opacity:1;stroke-miterlimit:3.25;" d="M 272.464844 28.050781 L 272.464844 17.277344 L 283.234375 17.277344 L 283.234375 28.050781 Z M 272.464844 28.050781 " transform="matrix(1,0,0,1,-66,-5)"/>
<path style="fill:none;stroke-width:1;stroke-linecap:square;stroke-linejoin:miter;stroke:rgb(61.802673%,61.802673%,61.802673%);stroke-opacity:1;stroke-miterlimit:3.25;" d="M 272.464844 28.050781 L 272.464844 17.277344 L 283.234375 17.277344 L 283.234375 28.050781 Z M 272.464844 28.050781 " transform="matrix(1,0,0,1,-66,-5)"/>
<path style="fill-rule:nonzero;fill:rgb(0%,0%,0%);fill-opacity:1;stroke-width:0.03;stroke-linecap:square;stroke-linejoin:miter;stroke:rgb(0%,0%,0%);stroke-opacity:1;stroke-miterlimit:3.25;" d="M 261.695313 41.511719 L 261.695313 30.742188 L 272.464844 30.742188 L 272.464844 41.511719 Z M 261.695313 41.511719 " transform="matrix(1,0,0,1,-66,-5)"/>
<path style="fill:none;stroke-width:1;stroke-linecap:square;stroke-linejoin:miter;stroke:rgb(61.802673%,61.802673%,61.802673%);stroke-opacity:1;stroke-miterlimit:3.25;" d="M 261.695313 41.511719 L 261.695313 30.742188 L 272.464844 30.742188 L 272.464844 41.511719 Z M 261.695313 41.511719 " transform="matrix(1,0,0,1,-66,-5)"/>
<path style="fill-rule:nonzero;fill:rgb(99.998474%,99.998474%,99.998474%);fill-opacity:1;stroke-width:0.03;stroke-linecap:square;stroke-linejoin:miter;stroke:rgb(99.998474%,99.998474%,99.998474%);stroke-opacity:1;stroke-miterlimit:3.239307;" d="M 294.003906 28.050781 L 294.003906 17.277344 L 304.773438 17.277344 L 304.773438 28.050781 Z M 294.003906 28.050781 " transform="matrix(1,0,0,1,-66,-5)"/>
<path style="fill:none;stroke-width:1;stroke-linecap:square;stroke-linejoin:miter;stroke:rgb(61.802673%,61.802673%,61.802673%);stroke-opacity:1;stroke-miterlimit:3.25;" d="M 294.003906 28.050781 L 294.003906 17.277344 L 304.773438 17.277344 L 304.773438 28.050781 Z M 294.003906 28.050781 " transform="matrix(1,0,0,1,-66,-5)"/>
<path style="fill-rule:nonzero;fill:rgb(0%,0%,0%);fill-opacity:1;stroke-width:0.03;stroke-linecap:square;stroke-linejoin:miter;stroke:rgb(0%,0%,0%);stroke-opacity:1;stroke-miterlimit:3.25;" d="M 304.773438 28.050781 L 304.773438 17.277344 L 315.546875 17.277344 L 315.546875 28.050781 Z M 304.773438 28.050781 " transform="matrix(1,0,0,1,-66,-5)"/>
<path style="fill:none;stroke-width:1;stroke-linecap:square;stroke-linejoin:miter;stroke:rgb(61.802673%,61.802673%,61.802673%);stroke-opacity:1;stroke-miterlimit:3.25;" d="M 304.773438 28.050781 L 304.773438 17.277344 L 315.546875 17.277344 L 315.546875 28.050781 Z M 304.773438 28.050781 " transform="matrix(1,0,0,1,-66,-5)"/>
<path style="fill-rule:nonzero;fill:rgb(99.998474%,99.998474%,99.998474%);fill-opacity:1;stroke-width:0.03;stroke-linecap:square;stroke-linejoin:miter;stroke:rgb(99.998474%,99.998474%,99.998474%);stroke-opacity:1;stroke-miterlimit:3.25;" d="M 315.546875 28.050781 L 315.546875 17.277344 L 326.316406 17.277344 L 326.316406 28.050781 Z M 315.546875 28.050781 " transform="matrix(1,0,0,1,-66,-5)"/>
<path style="fill:none;stroke-width:1;stroke-linecap:square;stroke-linejoin:miter;stroke:rgb(61.802673%,61.802673%,61.802673%);stroke-opacity:1;stroke-miterlimit:3.25;" d="M 315.546875 28.050781 L 315.546875 17.277344 L 326.316406 17.277344 L 326.316406 28.050781 Z M 315.546875 28.050781 " transform="matrix(1,0,0,1,-66,-5)"/>
<path style="fill-rule:nonzero;fill:rgb(99.998474%,99.998474%,99.998474%);fill-opacity:1;stroke-width:0.03;stroke-linecap:square;stroke-linejoin:miter;stroke:rgb(99.998474%,99.998474%,99.998474%);stroke-opacity:1;stroke-miterlimit:3.25;" d="M 304.773438 41.511719 L 304.773438 30.742188 L 315.546875 30.742188 L 315.546875 41.511719 Z M 304.773438 41.511719 " transform="matrix(1,0,0,1,-66,-5)"/>
<path style="fill:none;stroke-width:1;stroke-linecap:square;stroke-linejoin:miter;stroke:rgb(61.802673%,61.802673%,61.802673%);stroke-opacity:1;stroke-miterlimit:3.25;" d="M 304.773438 41.511719 L 304.773438 30.742188 L 315.546875 30.742188 L 315.546875 41.511719 Z M 304.773438 41.511719 " transform="matrix(1,0,0,1,-66,-5)"/>
<path style="fill-rule:nonzero;fill:rgb(99.998474%,99.998474%,99.998474%);fill-opacity:1;stroke-width:0.03;stroke-linecap:square;stroke-linejoin:miter;stroke:rgb(99.998474%,99.998474%,99.998474%);stroke-opacity:1;stroke-miterlimit:3.239307;" d="M 337.085938 28.050781 L 337.085938 17.277344 L 347.855469 17.277344 L 347.855469 28.050781 Z M 337.085938 28.050781 " transform="matrix(1,0,0,1,-66,-5)"/>
<path style="fill:none;stroke-width:1;stroke-linecap:square;stroke-linejoin:miter;stroke:rgb(61.802673%,61.802673%,61.802673%);stroke-opacity:1;stroke-miterlimit:3.25;" d="M 337.085938 28.050781 L 337.085938 17.277344 L 347.855469 17.277344 L 347.855469 28.050781 Z M 337.085938 28.050781 " transform="matrix(1,0,0,1,-66,-5)"/>
<path style="fill-rule:nonzero;fill:rgb(99.998474%,99.998474%,99.998474%);fill-opacity:1;stroke-width:0.03;stroke-linecap:square;stroke-linejoin:miter;stroke:rgb(99.998474%,99.998474%,99.998474%);stroke-opacity:1;stroke-miterlimit:3.25;" d="M 347.855469 28.050781 L 347.855469 17.277344 L 358.625 17.277344 L 358.625 28.050781 Z M 347.855469 28.050781 " transform="matrix(1,0,0,1,-66,-5)"/>
<path style="fill:none;stroke-width:1;stroke-linecap:square;stroke-linejoin:miter;stroke:rgb(61.802673%,61.802673%,61.802673%);stroke-opacity:1;stroke-miterlimit:3.25;" d="M 347.855469 28.050781 L 347.855469 17.277344 L 358.625 17.277344 L 358.625 28.050781 Z M 347.855469 28.050781 " transform="matrix(1,0,0,1,-66,-5)"/>
<path style="fill-rule:nonzero;fill:rgb(0%,0%,0%);fill-opacity:1;stroke-width:0.03;stroke-linecap:square;stroke-linejoin:miter;stroke:rgb(0%,0%,0%);stroke-opacity:1;stroke-miterlimit:3.25;" d="M 358.625 28.050781 L 358.625 17.277344 L 369.394531 17.277344 L 369.394531 28.050781 Z M 358.625 28.050781 " transform="matrix(1,0,0,1,-66,-5)"/>
<path style="fill:none;stroke-width:1;stroke-linecap:square;stroke-linejoin:miter;stroke:rgb(61.802673%,61.802673%,61.802673%);stroke-opacity:1;stroke-miterlimit:3.25;" d="M 358.625 28.050781 L 358.625 17.277344 L 369.394531 17.277344 L 369.394531 28.050781 Z M 358.625 28.050781 " transform="matrix(1,0,0,1,-66,-5)"/>
<path style="fill-rule:nonzero;fill:rgb(0%,0%,0%);fill-opacity:1;stroke-width:0.03;stroke-linecap:square;stroke-linejoin:miter;stroke:rgb(0%,0%,0%);stroke-opacity:1;stroke-miterlimit:3.25;" d="M 347.855469 41.511719 L 347.855469 30.742188 L 358.625 30.742188 L 358.625 41.511719 Z M 347.855469 41.511719 " transform="matrix(1,0,0,1,-66,-5)"/>
<path style="fill:none;stroke-width:1;stroke-linecap:square;stroke-linejoin:miter;stroke:rgb(61.802673%,61.802673%,61.802673%);stroke-opacity:1;stroke-miterlimit:3.25;" d="M 347.855469 41.511719 L 347.855469 30.742188 L 358.625 30.742188 L 358.625 41.511719 Z M 347.855469 41.511719 " transform="matrix(1,0,0,1,-66,-5)"/>
<path style="fill-rule:nonzero;fill:rgb(99.998474%,99.998474%,99.998474%);fill-opacity:1;stroke-width:0.03;stroke-linecap:square;stroke-linejoin:miter;stroke:rgb(99.998474%,99.998474%,99.998474%);stroke-opacity:1;stroke-miterlimit:3.239307;" d="M 380.164063 28.050781 L 380.164063 17.277344 L 390.933594 17.277344 L 390.933594 28.050781 Z M 380.164063 28.050781 " transform="matrix(1,0,0,1,-66,-5)"/>
<path style="fill:none;stroke-width:1;stroke-linecap:square;stroke-linejoin:miter;stroke:rgb(61.802673%,61.802673%,61.802673%);stroke-opacity:1;stroke-miterlimit:3.25;" d="M 380.164063 28.050781 L 380.164063 17.277344 L 390.933594 17.277344 L 390.933594 28.050781 Z M 380.164063 28.050781 " transform="matrix(1,0,0,1,-66,-5)"/>
<path style="fill-rule:nonzero;fill:rgb(99.998474%,99.998474%,99.998474%);fill-opacity:1;stroke-width:0.03;stroke-linecap:square;stroke-linejoin:miter;stroke:rgb(99.998474%,99.998474%,99.998474%);stroke-opacity:1;stroke-miterlimit:3.25;" d="M 390.933594 28.050781 L 390.933594 17.277344 L 401.703125 17.277344 L 401.703125 28.050781 Z M 390.933594 28.050781 " transform="matrix(1,0,0,1,-66,-5)"/>
<path style="fill:none;stroke-width:1;stroke-linecap:square;stroke-linejoin:miter;stroke:rgb(61.802673%,61.802673%,61.802673%);stroke-opacity:1;stroke-miterlimit:3.25;" d="M 390.933594 28.050781 L 390.933594 17.277344 L 401.703125 17.277344 L 401.703125 28.050781 Z M 390.933594 28.050781 " transform="matrix(1,0,0,1,-66,-5)"/>
<path style="fill-rule:nonzero;fill:rgb(99.998474%,99.998474%,99.998474%);fill-opacity:1;stroke-width:0.03;stroke-linecap:square;stroke-linejoin:miter;stroke:rgb(99.998474%,99.998474%,99.998474%);stroke-opacity:1;stroke-miterlimit:3.25;" d="M 401.703125 28.050781 L 401.703125 17.277344 L 412.476563 17.277344 L 412.476563 28.050781 Z M 401.703125 28.050781 " transform="matrix(1,0,0,1,-66,-5)"/>
<path style="fill:none;stroke-width:1;stroke-linecap:square;stroke-linejoin:miter;stroke:rgb(61.802673%,61.802673%,61.802673%);stroke-opacity:1;stroke-miterlimit:3.25;" d="M 401.703125 28.050781 L 401.703125 17.277344 L 412.476563 17.277344 L 412.476563 28.050781 Z M 401.703125 28.050781 " transform="matrix(1,0,0,1,-66,-5)"/>
<path style="fill-rule:nonzero;fill:rgb(99.998474%,99.998474%,99.998474%);fill-opacity:1;stroke-width:0.03;stroke-linecap:square;stroke-linejoin:miter;stroke:rgb(99.998474%,99.998474%,99.998474%);stroke-opacity:1;stroke-miterlimit:3.25;" d="M 390.933594 41.511719 L 390.933594 30.742188 L 401.703125 30.742188 L 401.703125 41.511719 Z M 390.933594 41.511719 " transform="matrix(1,0,0,1,-66,-5)"/>
<path style="fill:none;stroke-width:1;stroke-linecap:square;stroke-linejoin:miter;stroke:rgb(61.802673%,61.802673%,61.802673%);stroke-opacity:1;stroke-miterlimit:3.25;" d="M 390.933594 41.511719 L 390.933594 30.742188 L 401.703125 30.742188 L 401.703125 41.511719 Z M 390.933594 41.511719 " transform="matrix(1,0,0,1,-66,-5)"/>
<path style="fill:none;stroke-width:1;stroke-linecap:square;stroke-linejoin:miter;stroke:rgb(79.998779%,79.998779%,79.998779%);stroke-opacity:1;stroke-miterlimit:3.25;" d="M 73.179688 46.894531 L 73.179688 11.894531 " transform="matrix(1,0,0,1,-66,-5)"/>
<path style="fill:none;stroke-width:1;stroke-linecap:square;stroke-linejoin:miter;stroke:rgb(79.998779%,79.998779%,79.998779%);stroke-opacity:1;stroke-miterlimit:3.25;" d="M 116.261719 46.894531 L 116.261719 11.894531 " transform="matrix(1,0,0,1,-66,-5)"/>
<path style="fill:none;stroke-width:1;stroke-linecap:square;stroke-linejoin:miter;stroke:rgb(79.998779%,79.998779%,79.998779%);stroke-opacity:1;stroke-miterlimit:3.25;" d="M 159.339844 46.894531 L 159.339844 11.894531 " transform="matrix(1,0,0,1,-66,-5)"/>
<path style="fill:none;stroke-width:1;stroke-linecap:square;stroke-linejoin:miter;stroke:rgb(79.998779%,79.998779%,79.998779%);stroke-opacity:1;stroke-miterlimit:3.25;" d="M 202.421875 46.894531 L 202.421875 11.894531 " transform="matrix(1,0,0,1,-66,-5)"/>
<path style="fill:none;stroke-width:1;stroke-linecap:square;stroke-linejoin:miter;stroke:rgb(79.998779%,79.998779%,79.998779%);stroke-opacity:1;stroke-miterlimit:3.25;" d="M 245.5 46.894531 L 245.5 11.894531 " transform="matrix(1,0,0,1,-66,-5)"/>
<path style="fill:none;stroke-width:1;stroke-linecap:square;stroke-linejoin:miter;stroke:rgb(79.998779%,79.998779%,79.998779%);stroke-opacity:1;stroke-miterlimit:3.25;" d="M 288.578125 46.894531 L 288.578125 11.894531 " transform="matrix(1,0,0,1,-66,-5)"/>
<path style="fill:none;stroke-width:1;stroke-linecap:square;stroke-linejoin:miter;stroke:rgb(79.998779%,79.998779%,79.998779%);stroke-opacity:1;stroke-miterlimit:3.25;" d="M 331.660156 46.894531 L 331.660156 11.894531 " transform="matrix(1,0,0,1,-66,-5)"/>
<path style="fill:none;stroke-width:1;stroke-linecap:square;stroke-linejoin:miter;stroke:rgb(79.998779%,79.998779%,79.998779%);stroke-opacity:1;stroke-miterlimit:3.25;" d="M 374.738281 46.894531 L 374.738281 11.894531 " transform="matrix(1,0,0,1,-66,-5)"/>
<path style="fill:none;stroke-width:1;stroke-linecap:square;stroke-linejoin:miter;stroke:rgb(79.998779%,79.998779%,79.998779%);stroke-opacity:1;stroke-miterlimit:3.25;" d="M 417.820313 46.894531 L 417.820313 11.894531 " transform="matrix(1,0,0,1,-66,-5)"/>
<path style="fill:none;stroke-width:1;stroke-linecap:square;stroke-linejoin:miter;stroke:rgb(79.998779%,79.998779%,79.998779%);stroke-opacity:1;stroke-miterlimit:3.25;" d="M 73.179688 46.894531 L 417.820313 46.894531 " transform="matrix(1,0,0,1,-66,-5)"/>
<path style="fill:none;stroke-width:1;stroke-linecap:square;stroke-linejoin:miter;stroke:rgb(79.998779%,79.998779%,79.998779%);stroke-opacity:1;stroke-miterlimit:3.25;" d="M 73.179688 11.894531 L 417.820313 11.894531 " transform="matrix(1,0,0,1,-66,-5)"/>
</g>
</svg>
